<svg xmlns="http://www.w3.org/2000/svg" xml:space="preserve" viewBox="0 0 32 32">
  <path fill-rule="nonzero" d="M14.54 8.934h12.417c.422 0 .384-.044.39.397 0 .199-.013.403.007.602.019.224-.064.339-.276.422-.768.32-1.523.679-2.259 1.075-1.344.717-2.643 1.504-3.75 2.567-.506.486-.947 1.017-1.255 1.657-.505 1.063-.364 2.048.308 2.983.46.646 1.075 1.126 1.728 1.568.448.3.377.153.384.697v7.892c-.013.217-.02.23-.237.236H.454c-.454 0-.454 0-.454-.44v-4.371c0-.359 0-.359.352-.442a13.616 13.616 0 0 0 4.134-1.709c.999-.627 1.888-1.382 2.586-2.355.5-.698.858-1.46.966-2.31.141-1.063-.102-2.055-.659-2.97-.608-.992-1.446-1.754-2.387-2.42a16.17 16.17 0 0 0-2.989-1.644c-.198-.083-.3-.186-.281-.416.025-.275.012-.55.006-.826 0-.134.051-.192.186-.185.083.006.166 0 .256 0 4.115-.007 8.243-.007 12.37-.007Zm12.846-3.193c.102-.135.217-.263.326-.39.051-.065.064-.135.013-.205-.051-.07-.115-.128-.218-.096a3.244 3.244 0 0 0-1.498 1.165l-.198.281c-.045-.154.026-.262.051-.371.173-.762.404-1.51.826-2.176a2.32 2.32 0 0 1 .563-.634c.083-.057.147-.128.109-.237-.045-.121-.154-.09-.243-.096-.167-.012-.307.045-.448.128-.506.295-.864.736-1.171 1.223-.237.371-.423.761-.621 1.19-.199-.486-.455-.883-.826-1.197-.371-.313-.787-.524-1.293-.518.103-.18.282-.3.442-.435.07-.058.115-.128.064-.224a.203.203 0 0 0-.205-.115.7.7 0 0 0-.275.07 2.226 2.226 0 0 0-.685.448 5.038 5.038 0 0 0-.73.915c-.217.359-.403.736-.601 1.165a2.531 2.531 0 0 0-.826-.992c-.364-.256-.768-.34-1.21-.32.89.589 1.191 1.491 1.396 2.49h-1.69c-.025-.141.045-.237.09-.34a4.66 4.66 0 0 1 .698-1.126c.07-.077.108-.16.032-.256a.21.21 0 0 0-.256-.064c-.07.026-.135.064-.199.096-.525.282-.928.691-1.248 1.184-.051.077-.07.173-.179.23.038-.217.07-.428.115-.633.218-.986.461-1.959 1.261-2.663a.15.15 0 0 0 .045-.198c-.032-.07-.103-.058-.167-.064-.345-.045-.582.154-.812.358-.487.423-.807.973-1.082 1.55-.102.223-.192.454-.307.722a3.605 3.605 0 0 0-.416-.678c-.352-.454-.807-.774-1.376-.902-.147-.032-.333-.11-.435.07-.11.198.09.282.198.371.25.211.467.455.66.723.07.096.095.173-.02.27a3.57 3.57 0 0 0-.928 1.228c-.038.083-.083.147-.186.147-.281 0-.563.026-.876-.025.147-.43.352-.807.595-1.159.077-.115.166-.217.256-.326.057-.077.077-.147.013-.23-.058-.077-.135-.103-.224-.071-.07.026-.135.058-.199.09a3.383 3.383 0 0 0-1.28 1.196c-.051.077-.07.173-.185.237.102-.48.172-.934.307-1.376.211-.717.473-1.401 1.062-1.9.058-.052.103-.11.083-.193-.032-.108-.128-.083-.21-.09-.32-.031-.545.154-.756.34-.5.429-.832.98-1.1 1.568-.103.224-.2.448-.302.685-.102-.09-.128-.192-.185-.282-.359-.601-.845-1.05-1.536-1.241a.944.944 0 0 0-.378-.045c-.134.019-.205.102-.166.243.013.058.102.083.057.166-.588.346-.62.372-1.216 1.172-.166-.32-.32-.64-.492-.948a4.283 4.283 0 0 0-.967-1.203 1.827 1.827 0 0 0-.717-.39c-.115-.032-.243-.032-.3.102-.058.122.019.199.108.269.141.109.276.218.365.378-1.062.128-1.67.793-2.093 1.728-.204-.436-.384-.832-.627-1.197-.294-.455-.627-.877-1.1-1.165-.148-.09-.289-.18-.468-.166-.109.006-.25-.045-.3.102-.039.122.07.192.153.25.198.147.352.332.486.537.532.794.762 1.696.941 2.618-.16-.199-.294-.41-.467-.595a3.368 3.368 0 0 0-1.126-.807c-.122-.051-.244-.09-.34.045-.102.134.013.211.09.294.198.212.358.442.512.685.25.39.41.794.384 1.274-.032.473-.064.416.416.416h24.614c.186 0 .423.083.544-.051.122-.135.039-.365.045-.55.007-.353 0-.353-.365-.366-.05 0-.102-.012-.204-.019.166-.435.358-.78.608-1.094ZM6.253 4.73c.057.121.019.185-.09.25-.691.39-1.165.966-1.491 1.676-.051.115-.109.192-.256.186-.14 0-.186-.058-.16-.192.173-.864.506-1.652 1.158-2.266.116-.109.276-.166.352-.307.013-.026.02-.058.045-.122.199.263.32.519.442.775Zm16.57-.525c.71.525 1.087 1.26 1.311 2.093.032.108.052.224.07.339.014.07.04.16-.063.185-.103.026-.211.045-.288-.064-.039-.064-.064-.134-.096-.198-.333-.666-.787-1.216-1.447-1.58-.115-.065-.153-.116-.09-.244.129-.262.238-.538.436-.794.045.116.083.199.166.263ZM9.752 5.21c.09.108.058.179-.038.262-.333.269-.582.608-.793.973-.045.083-.096.166-.135.25-.051.121-.134.14-.25.14-.147 0-.185-.064-.16-.198.148-.691.404-1.325.865-1.869.019-.02.05-.038.09-.064.166.147.28.333.422.506Zm12.737.902c.044.09.032.154-.039.224a6.644 6.644 0 0 0-.358.397.313.313 0 0 1-.25.109c-.134 0-.198-.052-.173-.186.09-.429.167-.864.333-1.306.205.25.346.5.487.762Zm-15.674.691c-.211.07-.365.045-.486-.134-.039-.058-.096-.109-.148-.167-.262-.288-.268-.288-.064-.633.096-.16.205-.32.346-.538.18.525.3.986.352 1.472Zm3.584-.147c.032.115-.013.166-.14.18-.391.038-.43 0-.282-.372.057-.134.115-.269.192-.442.121.237.172.436.23.634Zm5.331.013c.026.096.013.173-.109.166-.134 0-.268.026-.416-.038.045-.269.167-.5.295-.768.121.23.166.435.23.64Zm13.965 21.766h1.965c.397 0 .403 0 .237-.377a16.48 16.48 0 0 0-.384-.832c-.781-1.536-1.863-2.81-3.29-3.783-1.363-.928-2.886-1.478-4.486-1.824-.224-.051-.25-.025-.263.211v6.432c0 .122.064.173.18.167h4.089c.646.006 1.3.006 1.952.006Z"/>
</svg>
